# This file uses centimeters as units for non-parametric coordinates.

mtllib StairCollider.mtl
g default
v -251.574692 -0.000000 -930.109260
v -251.574692 0.000000 -632.439338
v -251.574692 0.000000 -335.340492
v 250.296951 355.504883 -930.109260
v 250.296951 355.504883 -632.439338
v 250.296951 355.504883 -335.340492
vt 0.000000 0.000000
vt 1.000000 0.000000
vt 1.000000 1.000000
vt 0.000000 1.000000
vt 0.000000 0.000000
vt 1.000000 0.000000
vt 1.000000 1.000000
vt 0.000000 1.000000
vn -0.578031 0.816015 0.000000
vn -0.578031 0.816015 0.000000
vn -0.578031 0.816015 0.000000
vn -0.578031 0.816015 0.000000
vn -0.578031 0.816015 0.000000
vn -0.578031 0.816015 0.000000
vn -0.578031 0.816015 0.000000
vn -0.578031 0.816015 0.000000
s off
g Stair_Collider Stairs1
usemtl initialShadingGroup
f 4/1/1 1/4/2 2/3/3 5/2/4
f 5/5/5 2/8/6 3/7/7 6/6/8
