# This file uses centimeters as units for non-parametric coordinates.

mtllib StairColliders.mtl
g default
v -224.531693 187.176407 -765.989746
v -224.531693 187.176407 -429.615448
v -398.517578 356.159607 -765.989746
v -398.517578 356.159607 -429.615448
vt 0.000000 0.000000
vt 0.000000 1.000000
vt 1.000000 0.000000
vt 1.000000 1.000000
vn 0.696718 0.717345 0.000000
vn 0.696718 0.717345 0.000000
vn 0.696718 0.717345 0.000000
vn 0.696718 0.717345 0.000000
s off
g R_Stair_Collider01 polySurface14 polySurface5 GrandStairCase
usemtl initialShadingGroup
f 2/4/1 1/2/2 3/1/3 4/3/4
g default
v 224.531693 187.176407 -765.989746
v 224.531693 187.176407 -429.615448
v 398.517578 356.159607 -765.989746
v 398.517578 356.159607 -429.615448
vt 0.000000 0.000000
vt 0.000000 1.000000
vt 1.000000 0.000000
vt 1.000000 1.000000
vn -0.696718 0.717345 0.000000
vn -0.696718 0.717345 0.000000
vn -0.696718 0.717345 0.000000
vn -0.696718 0.717345 0.000000
s off
g polySurface14 polySurface5 GrandStairCase L_Stair_Collider01
usemtl initialShadingGroup
f 6/8/5 8/7/6 7/5/7 5/6/8
g default
v 205.192657 18.745468 57.143173
v 121.420486 18.745468 97.157471
v -0.000000 18.745468 120.083374
v 279.930328 18.745468 3.471901
v 91.600906 187.644989 -246.399780
v 45.204777 187.644989 -235.261078
v 0.000000 187.644989 -231.517456
v 123.553360 187.644989 -259.634949
v -205.192657 18.745468 57.143173
v -121.420486 18.745468 97.157471
v -279.930328 18.745468 3.471901
v -91.600906 187.644989 -246.399780
v -45.204777 187.644989 -235.261078
v -123.553360 187.644989 -259.634949
vt 0.000000 0.000000
vt 1.000000 0.000000
vt 1.000000 1.000000
vt 0.000000 1.000000
vt 0.000000 0.000000
vt 1.000000 0.000000
vt 1.000000 1.000000
vt 0.000000 1.000000
vt 0.000000 0.000000
vt 1.000000 0.000000
vt 1.000000 1.000000
vt 0.000000 1.000000
vt 0.000000 0.000000
vt 1.000000 0.000000
vt 1.000000 1.000000
vt 0.000000 1.000000
vt 0.000000 0.000000
vt 1.000000 0.000000
vt 1.000000 1.000000
vt 0.000000 1.000000
vt 0.000000 0.000000
vt 1.000000 0.000000
vt 1.000000 1.000000
vt 0.000000 1.000000
vn 0.166374 0.890549 0.423370
vn 0.166374 0.890549 0.423371
vn 0.166374 0.890549 0.423371
vn 0.166374 0.890549 0.423370
vn 0.069699 0.897505 0.435462
vn 0.069699 0.897505 0.435462
vn 0.069699 0.897505 0.435462
vn 0.069699 0.897505 0.435462
vn 0.253084 0.879248 0.403573
vn 0.253084 0.879248 0.403573
vn 0.253084 0.879248 0.403573
vn 0.253084 0.879248 0.403573
vn -0.166374 0.890549 0.423370
vn -0.166374 0.890549 0.423370
vn -0.166374 0.890549 0.423371
vn -0.166374 0.890549 0.423371
vn -0.069699 0.897505 0.435462
vn -0.069699 0.897505 0.435462
vn -0.069699 0.897505 0.435462
vn -0.069699 0.897505 0.435462
vn -0.253084 0.879248 0.403573
vn -0.253085 0.879248 0.403573
vn -0.253084 0.879248 0.403573
vn -0.253084 0.879248 0.403573
s off
g GrandStairCollider
usemtl initialShadingGroup
f 13/9/9 14/10/10 10/11/11 9/12/12
f 14/13/13 15/14/14 11/15/15 10/16/16
f 16/17/17 13/18/18 9/19/19 12/20/20
f 20/21/21 17/24/22 18/23/23 21/22/24
f 21/25/25 18/28/26 11/27/27 15/26/28
f 22/29/29 19/32/30 17/31/31 20/30/32
